<svg width="17" height="20" viewBox="0 0 17 20" fill="none" xmlns="http://www.w3.org/2000/svg">
<path d="M8.50078 0C9.05307 0 9.50078 0.447715 9.50078 1V2.07114C10.7992 2.257 12.0209 2.80282 12.9835 3.65848C14.1942 4.73462 14.9008 6.22119 14.9008 7.8C14.9008 9.61188 15.3087 10.9241 15.8058 11.858L15.8149 11.8752C16.1759 12.5534 16.4577 13.0827 16.6458 13.4615C16.7398 13.6508 16.8219 13.8255 16.8808 13.9739C16.9101 14.0475 16.942 14.1354 16.966 14.2281C16.9837 14.296 17.0284 14.4767 17.0004 14.6927C16.9863 14.8011 16.9548 15.0398 16.8108 15.2795C16.6669 15.5192 16.471 15.6592 16.3819 15.7226C16.2245 15.8345 16.0683 15.8822 15.9907 15.9033C15.8989 15.9281 15.8099 15.9428 15.736 15.9525C15.5882 15.9719 15.4164 15.9818 15.2373 15.9879C14.8804 16 14.3816 16 13.7533 16H3.24825C2.61994 16 2.12113 16 1.76423 15.9879C1.58518 15.9818 1.41332 15.9719 1.2656 15.9525C1.1917 15.9428 1.10263 15.9281 1.01087 15.9033C0.933286 15.8822 0.777039 15.8345 0.619656 15.7226C0.530557 15.6592 0.334687 15.5192 0.190749 15.2795C0.0468107 15.0398 0.0152221 14.8011 0.00117694 14.6927C-0.0268083 14.4767 0.0178853 14.296 0.0355371 14.2281C0.0596077 14.1354 0.0915068 14.0475 0.120715 13.9739C0.179641 13.8255 0.261799 13.6508 0.355813 13.4615C0.543918 13.0827 0.825629 12.5534 1.1867 11.8751L1.19579 11.858C1.69288 10.9241 2.10078 9.61188 2.10078 7.8C2.10078 6.22119 2.80738 4.73462 4.01804 3.65848C4.98066 2.80282 6.20238 2.257 7.50078 2.07114V1C7.50078 0.447715 7.9485 0 8.50078 0Z" fill="#475467"/>
<path d="M8.50052 20C7.01995 20 5.72726 19.1956 5.03564 18H11.9654C11.2738 19.1956 9.98108 20 8.50052 20Z" fill="#475467"/>
</svg>
