<svg width="19" height="17" viewBox="0 0 19 17" fill="none" xmlns="http://www.w3.org/2000/svg">
<path d="M17.8333 16V14.3333C17.8333 12.7801 16.771 11.4751 15.3333 11.105M12.4166 1.2423C13.6382 1.73679 14.5 2.93443 14.5 4.33333C14.5 5.73224 13.6382 6.92988 12.4166 7.42437M13.6666 16C13.6666 14.4469 13.6666 13.6703 13.4129 13.0577C13.0746 12.241 12.4257 11.592 11.6089 11.2537C10.9963 11 10.2198 11 8.66663 11H6.16663C4.61349 11 3.83692 11 3.22435 11.2537C2.40759 11.592 1.75867 12.241 1.42036 13.0577C1.16663 13.6703 1.16663 14.4469 1.16663 16M10.75 4.33333C10.75 6.17428 9.25758 7.66667 7.41663 7.66667C5.57568 7.66667 4.08329 6.17428 4.08329 4.33333C4.08329 2.49238 5.57568 1 7.41663 1C9.25758 1 10.75 2.49238 10.75 4.33333Z" stroke="#475467" stroke-width="1.66667" stroke-linecap="round" stroke-linejoin="round"/>
</svg>
