<svg width="25" height="25" viewBox="0 0 25 25" fill="none" xmlns="http://www.w3.org/2000/svg">
<path d="M17.0618 24.3362C17.0247 24.3374 16.9876 24.3384 16.9505 24.339C16.0703 24.351 15.1644 24.3397 14.282 24.3397L8.96636 24.3396L6.49176 24.3399C5.7384 24.3399 4.86875 24.3883 4.13933 24.2163C1.78861 23.6621 0.027096 21.6121 0.00657699 19.1743L0.00600945 9.45153L0.0060097 6.62771C0.00524874 5.74666 -0.0409205 4.89412 0.136921 4.02885C0.326544 3.06363 0.799841 2.17689 1.4962 1.48205C2.15038 0.821785 2.97747 0.359318 3.88245 0.147656C4.65595 -0.0322773 5.28524 0.00439341 6.06843 0.00477305L8.06993 0.00572308L14.7608 0.00553484L16.2432 0.00382598C16.5398 0.00363527 16.8799 -0.0144158 17.1633 0.0294761C17.7601 0.122007 18.059 0.582384 18.0479 1.16037C18.0376 1.69219 18.0592 2.24149 18.0493 2.77559C18.0449 3.00834 18.0619 3.25041 18.0167 3.48088C17.9874 3.62452 17.9256 3.75961 17.8362 3.8757C17.4657 4.36553 16.9867 4.27357 16.443 4.27338L14.9119 4.27262L8.35208 4.27186L6.5556 4.27072C5.79198 4.26996 5.0409 4.1761 4.53435 4.87797C4.16688 5.38756 4.25258 6.01096 4.25258 6.60757L4.25333 8.39227L4.2539 13.9591L4.25333 17.2536C4.25276 17.6068 4.2292 18.6256 4.27993 18.9053C4.36791 19.412 4.7291 19.8283 5.21836 19.987C5.53908 20.0945 7.21624 20.0529 7.65154 20.0531L14.0239 20.0542L15.9699 20.0529C16.3357 20.0524 16.6931 20.0473 17.0618 20.0637C17.5921 20.0873 18.0065 20.5005 18.0422 21.0283C18.048 21.3563 18.0547 21.6912 18.0452 22.0195C18.0192 22.9213 18.3134 24.1799 17.0618 24.3362Z" fill="white"/>
<path d="M18.4989 18.1628C18.1071 18.2186 17.6879 17.9669 17.6288 17.571C17.58 17.244 17.5994 16.8508 17.5998 16.5183C17.6025 15.9076 17.6017 15.2968 17.5975 14.686C16.2983 14.6999 14.9741 14.6869 13.6734 14.686L12.5446 14.6896C12.3193 14.6905 12.0723 14.705 11.8492 14.6725C11.3326 14.5937 11.0369 14.1763 11.0364 13.6722C11.035 12.7359 11.0423 11.8004 11.0354 10.8638C11.0347 10.4709 11.0073 10.0759 11.3052 9.77037C11.6486 9.41791 12.1099 9.46864 12.5594 9.46959L13.6046 9.47092L17.5995 9.4694C17.6088 8.67576 17.5893 7.87832 17.5971 7.08429C17.6001 6.77402 17.5962 6.54849 17.8016 6.29179C18.0291 6.05524 18.47 5.90171 18.7633 6.09856C19.1084 6.33036 19.4393 6.65717 19.7521 6.93704L21.4851 8.49032L23.6969 10.4643C24.0549 10.7856 24.4181 11.1034 24.7646 11.4365C25.0039 11.6664 25.0937 12.183 24.877 12.4492C24.593 12.798 24.2118 13.1064 23.8814 13.4173C22.9579 14.2844 22.0284 15.145 21.0928 15.9989L19.6542 17.3272C19.414 17.5485 19.1712 17.7839 18.9205 17.9926C18.7931 18.0986 18.6585 18.1345 18.4989 18.1628Z" fill="white"/>
</svg>
