<svg width="22" height="22" viewBox="0 0 22 22" fill="none" xmlns="http://www.w3.org/2000/svg">
<path d="M21.5 9.901H15.1027L20.6428 6.702L19.5442 4.798L14.0034 7.997L17.2013 2.4565L15.298 1.3575L12.0993 6.8966V0.5H9.90067V6.8973L6.70203 1.3575L4.79797 2.4565L7.9959 7.9956L2.45655 4.798L1.35721 6.702L6.89727 9.901H0.5V12.0997H6.89657L1.35721 15.2987L2.45585 17.2027L7.9966 14.0037L4.79797 19.5442L6.70133 20.6432L9.90067 15.1034V21.5H12.0993V14.9662L15.3567 20.6082L17.1419 19.5778L13.8837 13.9344L19.5428 17.202L20.6421 15.298L15.1027 12.099H21.4993V9.901H21.5ZM11 13.989C10.6075 13.989 10.2189 13.9118 9.85625 13.7616C9.49362 13.6114 9.16412 13.3912 8.88657 13.1136C8.60901 12.836 8.38882 12.5064 8.23858 12.1437C8.08834 11.781 8.01099 11.3923 8.01095 10.9997C8.0109 10.607 8.08816 10.2183 8.23831 9.85551C8.38847 9.49277 8.60858 9.16316 8.88607 8.88551C9.16356 8.60786 9.49301 8.3876 9.8556 8.23731C10.2182 8.08702 10.6068 8.00965 10.9993 8.0096C11.792 8.00951 12.5522 8.3244 13.1127 8.88502C13.6733 9.44563 13.9883 10.206 13.9884 10.999C13.9884 11.7919 13.6737 12.5523 13.1132 13.1131C12.5528 13.6738 11.7927 13.9889 11 13.989Z" fill="#625DF5"/>
</svg>
